<svg id="Capa_1" enable-background="new 0 0 512 512" height="512" viewBox="0 0 512 512" width="512" xmlns="http://www.w3.org/2000/svg"><g><path d="m487.795 176.318-54.978-103.614 53.813-12.914v-7.667l-107.886-25.891c3.427 9.268 5.303 19.281 5.303 29.725v4.089c0 8.813-1.399 17.324-3.982 25.318l21.82-5.236-51.04 96.19c-5.916 11.149-9.043 23.713-9.043 36.334v2.074c0 42.744 34.774 77.518 77.519 77.518 42.743 0 77.518-34.774 77.518-77.518v-2.074c-.001-12.621-3.128-25.185-9.044-36.334zm-68.476 7.24c-11.991 0-23.197-4.391-31.853-12.254l31.854-60.03 31.853 60.03c-8.656 7.863-19.862 12.254-31.854 12.254z"/><path d="m128.683 292.681v-12.156h30.173c29.425 0 53.278-23.854 53.278-53.278v-34.254h-90.416c-58.849 0-106.556 47.707-106.556 106.556v46.41h60.243c29.425 0 53.278-23.854 53.278-53.278z"/><path d="m354.047 60.046v-4.089c0-30.905-25.052-55.957-55.956-55.957-30.904 0-55.956 25.052-55.956 55.956v171.29c0 45.92-37.358 83.278-83.278 83.278h-2.097c-2.908 13.268-9.002 25.352-17.417 35.434h65.49c56.906 0 103.038-46.131 103.038-103.037l-.038-131.031c26.007-2.96 46.214-25.042 46.214-51.844z"/><path d="m198.99 375.959h-30v22.329h-36.567l9.563-22.329h-32.636l-22.41 52.329h82.05v83.712h61.98v-30h-31.98v-53.712h27.882v31.979h30v-61.979h-57.882z"/></g></svg>