<?xml version="1.0" encoding="UTF-8" standalone="no"?>
<!-- Created with Inkscape (http://www.inkscape.org/) -->

<svg
   xmlns:dc="http://purl.org/dc/elements/1.1/"
   xmlns:cc="http://creativecommons.org/ns#"
   xmlns:rdf="http://www.w3.org/1999/02/22-rdf-syntax-ns#"
   xmlns:svg="http://www.w3.org/2000/svg"
   xmlns="http://www.w3.org/2000/svg"
   xmlns:sodipodi="http://sodipodi.sourceforge.net/DTD/sodipodi-0.dtd"
   xmlns:inkscape="http://www.inkscape.org/namespaces/inkscape"
   width="210mm"
   height="297mm"
   viewBox="0 0 210 297"
   version="1.1"
   id="svg58"
   inkscape:version="0.92.5 (2060ec1f9f, 2020-04-08)"
   sodipodi:docname="firma.svg">
  <defs
     id="defs52" />
  <sodipodi:namedview
     id="base"
     pagecolor="#ffffff"
     bordercolor="#666666"
     borderopacity="1.0"
     inkscape:pageopacity="0.0"
     inkscape:pageshadow="2"
     inkscape:zoom="0.35"
     inkscape:cx="400"
     inkscape:cy="560"
     inkscape:document-units="mm"
     inkscape:current-layer="layer1"
     showgrid="false"
     inkscape:window-width="1366"
     inkscape:window-height="705"
     inkscape:window-x="-8"
     inkscape:window-y="-8"
     inkscape:window-maximized="1" />
  <metadata
     id="metadata55">
    <rdf:RDF>
      <cc:Work
         rdf:about="">
        <dc:format>image/svg+xml</dc:format>
        <dc:type
           rdf:resource="http://purl.org/dc/dcmitype/StillImage" />
        <dc:title></dc:title>
      </cc:Work>
    </rdf:RDF>
  </metadata>
  <g
     inkscape:label="Capa 1"
     inkscape:groupmode="layer"
     id="layer1">
    <path
       id="path92"
       d="m 86.858553,181.22232 c 2.281669,0.33718 4.586708,0.47209 6.889403,0.56182 0.768453,-0.16028 1.606526,-0.14695 2.361986,-0.37595 2.935142,-0.88972 14.812198,-8.23559 -8.034218,4.6802 1.232892,-0.62102 2.225992,-1.50373 3.100704,-2.55705 0.904767,-1.19119 1.152568,-2.62241 1.295472,-4.07115 0.186669,-1.43035 0.120647,-2.65116 -0.567508,-3.91987 -0.801938,-1.12298 -2.087414,-1.31458 -3.368005,-1.45134 -1.483947,-0.14585 -2.75608,-0.12733 -4.194336,0.24283 -3.499181,2.25049 0.327652,-0.22319 8.712731,-4.91309 0.140724,-0.0787 -0.273036,0.17736 -0.383489,0.29482 -0.401641,0.42713 -0.496557,1.00135 -0.614003,1.54873 -0.132654,1.5128 -0.184777,3.00716 -0.52814,4.4926 -0.420436,1.51394 -0.884555,3.01338 -1.56845,4.43053 -0.460931,1.19043 -0.929426,2.29628 -1.701779,3.31687 -3.146332,2.84569 -8.011266,4.85886 -11.128833,6.58551 -0.584522,0.32374 -1.352105,0.32912 -1.973834,0.61128 -0.8221,0.19582 -1.524537,0.58949 -2.285341,0.93232 0,0 8.794631,-6.97429 8.794631,-6.97429 v 0 c 0.756023,-0.33727 1.549427,-0.565 2.321192,-0.86496 0.456184,-0.13375 0.851046,-0.23653 1.292143,-0.41886 0.206812,-0.0855 0.7991,-0.40195 0.606182,-0.28854 -16.026037,9.42108 -11.426015,6.29856 -8.000365,4.72469 1.02494,-0.77872 1.523772,-1.77482 1.87288,-3.00073 0.689734,-1.37083 1.318995,-2.74254 1.669573,-4.25135 0.484122,-1.42108 0.542036,-2.86866 0.565306,-4.35993 0.557088,-5.39067 4.848159,-7.37346 11.288737,-8.63482 1.462412,-0.21578 2.954575,-0.10194 4.41548,0.0869 1.580716,0.32213 3.000198,0.90058 3.917138,2.31038 0.88854,1.58926 1.05118,2.68739 0.86984,4.49866 -0.0979,1.59251 -0.26318,3.19976 -1.04041,4.62715 -0.74993,1.1859 -1.647212,2.27126 -2.887487,2.9706 -5.256575,2.98295 -8.335542,6.35547 -13.847194,6.22754 -2.343375,-0.13988 -4.681598,-0.34553 -7.015448,-0.59914 0,0 9.165442,-6.46239 9.165442,-6.46239 z"
       inkscape:connector-curvature="0"
       style="stroke-width:0.26458332" />
    <path
       id="path94"
       d="m 105.00141,179.71041 c 1.28879,0.125 2.37988,-0.2098 3.44412,-0.89701 0.21931,-0.14162 0.8875,-0.54982 0.66057,-0.42076 -3.0026,1.7077 -5.99224,3.43808 -8.98836,5.15711 1.12533,-0.81129 1.32381,-2.07377 1.45327,-3.36446 0.0948,-1.71535 0.0796,-3.43512 0.0737,-5.15251 -0.0765,-1.80778 0.27363,-3.59137 0.48443,-5.3789 0.82979,-5.62999 5.68858,-5.63345 11.34069,-8.84459 1.67389,-0.34941 2.55958,-0.10659 4.07556,0.55124 1.12188,0.71645 2.20403,1.50893 3.12507,2.47479 0.85789,0.85194 1.74449,1.68558 2.5434,2.59456 0.79627,1.00399 1.35338,2.05148 1.67187,3.29364 0.28665,1.44362 0.29174,2.92201 0.30748,4.38792 -0.12258,1.50661 -0.33689,3.02501 -0.75749,4.47966 -0.41803,1.52243 -0.67449,3.08355 -1.01425,4.62618 -0.24284,1.192 -0.79559,2.27743 -1.26348,3.38921 0,0 -10.15792,4.71616 -10.15792,4.71616 v 0 c 0.38694,-1.11152 0.95248,-2.13244 1.35451,-3.23853 0.32143,-1.57154 0.69661,-3.12267 0.94341,-4.70864 0.45948,-1.36312 0.71104,-2.74816 0.92616,-4.17427 -0.008,-1.38576 7.9e-4,-2.78054 -0.21129,-4.1536 -0.23189,-1.07749 -0.70685,-1.94671 -1.40514,-2.80133 -0.80721,-0.87545 -1.64597,-1.72428 -2.49849,-2.55504 -0.85614,-0.81706 -1.80935,-1.56554 -2.87441,-2.08986 -1.19821,-0.42924 -2.40296,-0.37731 -3.57272,0.16796 3.03043,-1.77171 6.07803,-3.51437 9.09129,-5.31514 0.15434,-0.0922 -0.34807,0.10027 -0.50672,0.18488 -0.77787,0.41485 -0.85773,1.29341 -1.09887,2.05126 -0.19048,1.75979 -0.59349,3.50452 -0.57554,5.2774 0.0127,1.73588 0.0617,3.47236 0.014,5.20801 -0.0744,1.46727 -0.16491,2.98463 -1.07161,4.2089 -3.3692,2.01382 -6.72917,4.04315 -10.10759,6.04146 -1.386023,0.81983 -3.005151,0.89902 -4.571164,0.74669 0,0 9.165444,-6.46239 9.165444,-6.46239 z"
       inkscape:connector-curvature="0"
       style="stroke-width:0.26458332" />
    <path
       id="path98"
       d="m 132.1799,177.39975 c 1.27383,1.59131 2.49496,3.23274 3.88058,4.72977 1.03293,1.00179 2.36681,1.14192 3.73275,1.22471 1.65962,0.0542 3.32055,0.0275 4.98062,0.0129 1.58536,-0.0152 3.17078,-0.0207 4.75621,-0.0238 1.51466,-0.13396 3.12192,-0.30062 4.58741,-0.73907 0.71848,-0.2286 1.44934,-0.28914 2.10864,-0.67862 0.1963,-0.11596 0.75784,-0.50578 0.55929,-0.39372 -8.93125,5.04112 -11.73185,7.41635 -8.53768,4.76294 1.07338,-0.78594 1.42364,-1.89927 1.62216,-3.15558 0.22436,-1.34124 0.10181,-2.63753 -0.16629,-3.95433 -0.31678,-1.2394 -1.08314,-2.33219 -2.13337,-3.05648 -1.21397,-0.65988 -2.49112,-1.01259 -3.85232,-1.1974 -1.5438,-0.30692 -2.85355,0.24816 -4.21571,0.91896 2.32906,-1.45231 -4.69391,2.47238 -2.31971,1.09019 17.05977,-9.93167 10.58025,-6.6056 7.81632,-4.28195 -0.89848,0.68153 -1.76858,1.26278 -2.09119,2.39328 -0.0352,1.51031 1.00858,2.86403 1.77956,4.08971 0.85704,1.77558 2.011,3.34817 3.17741,4.92191 0.67459,1.14377 1.4908,2.18669 2.27563,3.25454 0.88433,1.07144 1.62573,2.23801 2.42068,3.37172 0.79992,1.1265 1.0505,2.49234 1.41738,3.79619 0.42157,1.48416 0.55713,3.02091 0.6394,4.55473 0.0546,1.70557 0.0439,3.41289 0.0465,5.11925 0.002,1.58022 10e-4,3.16042 7.9e-4,4.74065 0.0278,1.56879 -0.27089,3.12742 -0.58163,4.65955 -0.34299,1.72217 -1.18836,3.26321 -2.04789,4.77287 -3.22719,5.33238 -5.80089,5.14495 -12.86919,9.14191 -0.73218,0.20389 -1.41212,0.21659 -2.15397,0.11133 0,0 9.08947,-6.57227 9.08947,-6.57227 v 0 c 0.63958,-0.0815 1.26639,-0.19265 1.84719,-0.49422 -2.98961,1.7439 -5.98978,3.46983 -8.96882,5.23171 -0.2035,0.12034 0.43815,-0.18266 0.63998,-0.3058 1.00934,-0.61584 1.51435,-1.67926 2.23268,-2.57125 0.81509,-1.43417 1.7463,-2.85731 2.14424,-4.47344 0.40766,-1.42166 0.6201,-2.95042 0.697,-4.42092 0.002,-1.58279 0.006,-3.16558 0.0137,-4.74835 0.006,-1.68804 0.0137,-3.37637 -0.0385,-5.06386 -0.0566,-1.45291 -0.14313,-2.91389 -0.52578,-4.32435 -0.33678,-1.18375 -0.55444,-2.43553 -1.25305,-3.471 -0.76324,-1.13839 -1.5102,-2.28403 -2.39783,-3.33456 -0.79708,-1.06006 -1.57956,-2.13054 -2.24799,-3.27809 -1.16828,-1.60341 -2.26423,-3.23886 -3.16507,-5.01452 -0.93282,-1.44281 -2.06106,-2.94716 -2.23861,-4.70245 0.006,-1.34529 0.52609,-2.54128 1.76893,-3.17863 0.36367,-0.31308 0.62967,-0.74778 1.0419,-0.99342 4.13478,-2.46387 8.17525,-5.10373 12.62229,-6.94521 1.53823,-0.55026 2.98747,-0.81996 4.61106,-0.41795 1.47941,0.30716 2.91383,0.78726 4.17237,1.6477 1.15873,0.99668 2.09023,2.25888 2.53234,3.73734 0.29598,1.42513 0.52663,2.81849 0.32245,4.2819 -0.12341,1.39741 -0.29433,2.82854 -1.27207,3.91579 -3.88966,3.36213 -8.39475,6.22061 -13.41672,7.29061 -1.56991,0.2651 -3.14465,0.59971 -4.74518,0.54182 -1.58001,0.003 -3.16001,0.009 -4.73999,0.0185 -1.69041,0.008 -3.38673,0.048 -5.07243,-0.0974 -1.59325,-0.22705 -3.04713,-0.69936 -4.16016,-1.9346 -1.34389,-1.56417 -2.55333,-3.24042 -3.96231,-4.74975 0,0 9.6364,-5.7595 9.6364,-5.7595 z"
       inkscape:connector-curvature="0"
       style="stroke-width:0.26458332" />
    <path
       id="path106"
       d="m 161.5566,180.76251 c 4.13983,-1.66161 12.46925,-6.71733 -4.44609,2.87834 1.41517,-0.98783 2.48501,-2.26292 3.42873,-3.68708 0.77268,-1.0208 1.22292,-2.22658 1.7068,-3.39997 0.43417,-1.47291 0.97303,-2.91152 1.4154,-4.38161 0.56529,-1.54044 0.89729,-3.15112 1.41374,-4.70523 0.36472,-1.39848 0.78918,-2.78395 1.14212,-4.18637 0.43212,-1.37385 0.69754,-2.79523 1.14138,-4.16432 0.48497,-1.28081 0.62326,-2.63541 0.72047,-3.98962 0.0811,-1.71016 0.0573,-3.42277 0.0685,-5.1342 0.0523,-1.67528 -0.0496,-3.35664 -0.49385,-4.97746 -0.50528,-1.33298 -0.77419,-2.7188 -0.92351,-4.13094 0,0 9.93175,-5.17944 9.93175,-5.17944 v 0 c 0.11271,1.35171 0.3304,2.68203 0.82098,3.95512 0.49672,1.70482 0.6629,3.49114 0.61152,5.2634 0.0145,1.72519 0.005,3.45063 -0.0287,5.17557 -0.0366,1.43318 -0.12065,2.87965 -0.55678,4.25622 -0.47276,1.33911 -0.75048,2.71014 -1.19948,4.06041 -0.28947,1.45953 -0.85966,2.82724 -1.08806,4.29997 -0.55254,1.53987 -0.90338,3.12584 -1.47623,4.66279 -0.39314,1.49397 -0.9631,2.93175 -1.33338,4.42806 -0.39471,1.278 -0.97169,2.52245 -1.60674,3.69309 -1.05441,1.38003 -1.80241,3.01697 -3.34801,3.96167 -4.78188,2.89231 -9.41477,6.35881 -14.78358,8.14106 0,0 8.88296,-6.83946 8.88296,-6.83946 z"
       inkscape:connector-curvature="0"
       style="stroke-width:0.26458332" />
    <path
       id="path108"
       d="m 189.6578,166.62007 c 1.437,1.18894 2.54445,2.59199 3.60928,4.1047 0.96357,1.40007 1.20893,3.09028 1.37535,4.74221 0.0991,1.52764 0.19401,3.06327 -0.0529,4.5796 -0.25092,1.27849 -1.16231,2.20075 -2.13797,2.99782 -3.49467,1.9781 -8.75829,6.87644 -13.83389,5.98548 -1.34802,-0.17886 -2.47394,-0.69878 -3.4827,-1.5958 -1.06479,-0.6962 -1.67908,-1.83572 -2.50633,-2.76555 -0.84418,-1.0744 -1.39234,-2.33077 -1.7767,-3.63248 -0.34927,-1.48087 -0.47256,-3.01173 -0.40742,-4.52966 0.70402,-4.99747 7.10946,-7.61145 11.70414,-8.21376 1.46246,-0.13139 2.93324,-0.10526 4.3999,-0.0966 1.50381,0.0434 3.01606,-0.2169 4.3885,0.49332 1.33576,1.04479 1.66338,2.59416 2.07905,4.14349 0.39615,1.50919 0.63873,3.03954 1.22298,4.49231 0.49323,1.21054 0.96059,2.44258 1.57633,3.59764 0.62851,1.01852 1.78845,1.47663 2.69628,2.20543 0.59568,0.48466 1.30173,0.65931 2.0363,0.80249 0,0 -9.24174,6.35614 -9.24174,6.35614 v 0 c -0.82654,-0.26946 -1.61298,-0.59988 -2.28638,-1.168 -1.07197,-0.7747 -2.27042,-1.43281 -2.94488,-2.62185 -0.62307,-1.19116 -1.10578,-2.45353 -1.6081,-3.69891 -0.6334,-1.48995 -0.88059,-3.06096 -1.26259,-4.62599 -0.33284,-1.15787 -0.44318,-2.57211 -1.59351,-3.23568 -1.33968,-0.32349 -2.75223,-0.0794 -4.11693,-0.16259 -1.41938,0.007 -2.867,-0.0259 -4.24916,0.34255 -3.83281,1.59342 -0.0551,0.0521 8.5419,-5.09565 0.15081,-0.0903 -0.34102,0.0956 -0.49663,0.17733 -0.53759,0.28248 -0.71513,0.76246 -0.80102,1.33411 -0.2764,1.35825 -0.0145,2.7924 0.20034,4.14634 0.30879,1.15949 0.79953,2.25808 1.55756,3.19827 0.75396,0.91104 1.38392,1.94128 2.39671,2.59893 0.91733,0.6739 1.96377,0.9709 3.09936,1.0409 4.54667,-0.11583 10.6021,-4.72225 -5.74601,4.58489 1.00873,-0.46101 1.88578,-1.25989 2.50405,-2.1622 0.34155,-1.42513 0.32909,-2.84525 0.22212,-4.30838 -0.10848,-1.47006 -0.24732,-2.98312 -1.09985,-4.23659 -0.9763,-1.45315 -2.02618,-2.76998 -3.472,-3.80289 0,0 9.50659,-5.97134 9.50659,-5.97134 z"
       inkscape:connector-curvature="0"
       style="stroke-width:0.26458332" />
    <path
       id="path112"
       d="m 35.187379,212.60965 c 18.614582,-2.46414 37.24209,-4.83481 55.878361,-7.1331 17.02691,-2.00895 34.09713,-3.68343 51.20988,-4.75101 7.11122,-0.27603 14.20949,-0.75679 21.31199,-1.18928 3.0405,-0.0438 6.04357,-0.26745 9.04876,-0.70602 1.13965,-0.10386 2.22494,-0.48413 3.33839,-0.73233 0,0 -8.89735,6.77676 -8.89735,6.77676 v 0 c -1.1108,0.26342 -2.22206,0.52908 -3.3638,0.62195 -2.96065,0.36187 -5.93205,0.38417 -8.91045,0.49307 -6.90732,0.30814 -13.81433,0.58267 -20.72639,0.76232 -16.77782,0.81111 -33.5243,2.21102 -50.215928,4.09395 -19.250974,2.31984 -38.506611,4.71139 -57.552039,8.40886 0,0 8.878576,-6.64517 8.878576,-6.64517 z"
       inkscape:connector-curvature="0"
       style="stroke-width:0.26458332" />
    <path
       id="path183"
       d="m 45.483153,109.85561 c 0.380188,-0.14396 0.76239,-0.28359 1.14056,-0.43188 2.147591,-0.84213 4.24616,-1.76399 6.320996,-2.7457 0.937437,-0.44354 3.236085,-2.22721 2.800168,-1.35165 -0.452302,0.90846 -1.907742,0.98338 -2.861612,1.47507 6.227111,-3.2844 11.679914,-7.550926 16.875981,-12.042156 2.502726,-2.22806 4.865893,-4.61879 6.530195,-7.43723 0.452341,-1.00397 0.926232,-2.04822 1.099529,-3.12947 -0.153926,-1.30775 -1.071759,-2.24636 -2.16172,-3.02649 -2.074119,-1.29247 -4.400047,-2.12913 -6.789434,-2.79846 -3.254785,-0.79056 -6.599214,-1.07741 -9.950158,-1.25577 -3.654226,-0.22083 -7.311275,-0.0682 -10.941329,0.33807 -3.541743,0.38825 -7.009968,1.15135 -10.398906,2.15129 -2.311598,0.67863 -4.497415,1.62229 -6.623831,2.67935 10.18503,-5.34531 6.367242,-3.52306 4.347041,-2.08233 -0.658455,0.46959 -1.255496,0.99832 -1.867546,1.51589 -1.652081,1.32463 -2.972429,2.9206 -4.274865,4.52256 -1.66957,2.04349 -3.006514,4.28808 -4.363645,6.50869 -1.445348,2.24274 -2.569339,4.62633 -3.69301,7.0106 -0.939211,2.025136 -1.706302,4.088926 -2.29383,6.218806 -0.506777,1.71132 -0.695972,3.47085 -0.784969,5.23502 -0.08672,1.91622 0.638805,3.64445 1.646317,5.28793 1.339626,2.06012 3.322161,3.58722 5.407118,4.99445 4.180072,2.66175 9.052683,4.15978 13.812546,5.71345 8.444114,2.54751 17.100514,4.46063 25.731207,6.40274 4.867577,1.12683 9.765498,2.13813 14.642443,3.22877 1.152724,0.32995 2.689513,0.59458 3.029578,1.84931 0.0574,0.21174 0.0431,0.43441 0.06461,0.65161 -0.275384,2.17938 -1.631914,4.06851 -2.823721,5.92205 -2.493385,3.41095 -4.805809,6.91817 -7.110188,10.43625 -2.593344,3.67336 -5.189,7.35322 -8.042257,10.86638 -1.841999,2.26803 -3.155116,3.72153 -5.09079,5.92701 -4.132353,4.66491 -8.579256,9.09051 -13.206632,13.35056 -2.034357,1.7866 -4.048063,3.58823 -6.044916,5.40925 -1.090971,1.0206 -2.226143,1.99295 -3.449651,2.88054 -1.548616,1.09502 -3.153023,2.12206 -4.808342,3.07862 -2.431996,1.27132 -4.864673,2.54156 -7.295989,3.81396 -4.630959,2.42353 7.73955,-4.11774 3.250178,-1.64838 -0.300637,0.16536 -0.60665,0.32259 -0.906357,0.48934 -0.281749,0.15676 -0.558565,0.32075 -0.837847,0.48112 -1.163394,0.66926 -2.316456,1.34667 -3.458137,2.0454 -0.382012,0.20817 -0.744799,0.44212 -1.119569,0.66068 0,0 -6.974704,2.48224 -6.974704,2.48224 v 0 c 0.373226,-0.2351 0.772628,-0.42801 1.119853,-0.69609 0.537145,-0.25869 0.961368,-0.58273 1.460651,-0.89161 0.676364,-0.41844 1.448359,-0.69693 2.096343,-1.15715 3.099698,-1.93971 7.033964,-3.83077 10.037897,-5.41937 0.350019,-0.1851 1.404916,-0.73274 1.055645,-0.54647 -1.76359,0.94053 -3.532448,1.87286 -5.298673,2.80929 1.656323,-0.91927 3.256259,-1.91893 4.78849,-3.00156 1.259647,-0.84216 2.410121,-1.79221 3.502669,-2.80913 2.096061,-1.85326 4.178295,-3.71389 6.332014,-5.51291 4.748084,-4.26235 9.331205,-8.68153 13.533144,-13.39955 1.86872,-2.12088 3.296847,-3.6992 5.072319,-5.88239 2.810836,-3.45631 5.3252,-7.09966 7.850297,-10.73043 2.236536,-3.48652 4.439166,-6.98499 6.897804,-10.34813 1.124192,-1.74529 2.371045,-3.51338 2.828839,-5.51875 0.02827,-0.27434 0.113273,-0.50556 -0.06321,-0.75689 -0.486874,-0.69335 -1.696902,-0.73923 -2.419309,-1.06439 -4.703557,-1.23677 -9.442451,-2.36271 -14.172116,-3.51296 -8.644953,-2.03052 -17.324916,-3.96981 -25.84949,-6.39356 -4.925224,-1.49702 -9.963432,-2.95258 -14.273856,-5.67026 -2.187014,-1.45633 -4.244506,-3.04292 -5.640768,-5.19524 -1.080483,-1.73646 -1.901566,-3.57047 -1.867654,-5.60277 0.08421,-1.80531 0.196147,-3.61646 0.739989,-5.36621 0.283716,-1.02207 0.535663,-2.048 0.91314,-3.04627 0.484572,-1.28149 0.387693,-0.87766 0.924444,-2.15645 0.156868,-0.37373 0.296164,-0.75337 0.444247,-1.13005 1.148681,-2.39666 2.240676,-4.818516 3.695023,-7.080556 1.337534,-2.23577 2.664544,-4.49301 4.283853,-6.57267 1.29402,-1.60398 2.533476,-3.25333 4.145815,-4.61578 0.62345,-0.50801 1.191171,-1.07819 1.828599,-1.57049 2.4665,-1.90493 5.70304,-3.12282 8.308236,-4.6268 2.122528,-1.0084 4.321245,-1.86701 6.61209,-2.51111 3.414241,-0.93153 6.886583,-1.65925 10.434431,-2.02074 3.666983,-0.3596 7.355901,-0.50454 11.039956,-0.25739 3.400658,0.22084 6.805221,0.50907 10.100207,1.35504 2.466637,0.72765 4.882919,1.59856 7.02518,2.95439 1.273019,0.94871 2.228733,2.05481 2.576475,3.55129 0.0165,1.19788 -0.650655,2.31954 -1.063881,3.4348 -1.690154,2.96549 -4.166834,5.44938 -6.783307,7.76894 -5.245227,4.50119 -10.686562,8.848256 -16.913215,12.210746 -2.994394,1.5783 -5.973579,3.18071 -8.983178,4.7349 -3.061988,1.58124 -6.264208,2.90396 -9.438674,4.27975 -0.40564,0.1758 -0.804418,0.36441 -1.206627,0.54661 0,0 5.801806,-4.25912 5.801806,-4.25912 z"
       inkscape:connector-curvature="0"
       style="stroke-width:0.16861358" />
    <path
       style="fill:none;stroke-width:2.85714293"
       d="m 534.85714,850.12015 c 0,-0.84832 2.70783,-6.85016 6.01737,-13.33743 6.3734,-12.4929 11.17695,-54.62003 6.50609,-57.05842 -3.59343,-1.87591 -84.61249,2.40304 -146.80917,7.75359 -83.31915,7.16764 -237.07406,27.179 -287.14286,37.37192 -7.91363,1.61105 -7.47906,0.90385 5.66266,-9.21515 l 14.23409,-10.96011 105.76591,-13.49629 C 357.84421,776.02475 434.8488,767.6602 501.47783,762.67677 l 45.19211,-3.38009 -1.81414,-7.3885 c -0.99777,-4.06367 -5.90566,-13.36648 -10.9064,-20.67291 l -9.09226,-13.28442 -19.71411,-1.1189 c -18.83917,-1.06924 -20.14543,-1.61785 -29.43234,-12.36124 -9.54995,-11.04765 -11.39226,-11.172 -15.80709,-1.06695 -1.14754,2.62657 -28.59054,14.23851 -30.09497,12.73407 -0.71957,-0.71956 0.82283,-10.88738 3.42757,-22.59514 4.8372,-21.7423 4.08266,-32.56024 -3.07054,-44.023 -6.17395,-9.89355 -9.59423,-7.68512 -9.59423,6.19489 0,6.9429 -0.75983,14.60358 -1.68854,17.02373 -1.90389,4.96145 -43.76631,30.36302 -49.99115,30.33398 -2.21903,-0.0103 -0.20868,-2.54071 4.46742,-5.623 8.59656,-5.66649 12.35934,-11.77348 12.72574,-20.65386 0.18866,-4.57265 -0.30655,-4.57593 -8.18535,-0.0541 -4.61238,2.64715 -7.13297,5.58751 -5.6013,6.53414 1.53167,0.94662 -5.3017,6.74438 -15.18527,12.88392 -14.40438,8.94779 -21.65518,11.49821 -36.54155,12.8532 -10.21429,0.92973 -20.89526,2.71506 -23.73549,3.9674 -4.24664,1.87248 -3.89662,0.40931 1.97026,-8.23602 3.92388,-5.78216 8.58589,-17.8409 10.36002,-26.79721 1.77413,-8.95631 4.76272,-19.49848 6.64131,-23.42705 7.73153,-16.1685 48.3279,-25.87693 61.93758,-14.81208 l 7.11203,5.78217 4.2896,-9.05648 c 4.48495,-9.46898 33.19186,-27.38958 44.12826,-27.54757 7.92823,-0.11453 26.31769,13.37582 33.02317,24.22555 6.3028,10.19816 7.26986,25.64691 2.64743,42.29301 -1.6624,5.98653 -2.61951,12.03293 -2.12691,13.43644 0.49257,1.40352 7.92357,-1.79148 16.51334,-7.1 8.58974,-5.30852 16.6518,-9.01278 17.91563,-8.23168 1.26383,0.78109 5.94108,-1.64537 10.39385,-5.39214 4.4528,-3.74677 18.72043,-12.33976 31.70589,-19.09554 19.42057,-10.10369 25.45149,-11.99068 33.9884,-10.63454 14.398,2.28721 26.09277,15.65606 26.09277,29.82791 0,13.62302 -4.85054,20.46443 -22.57168,31.83606 l -14.1696,9.09259 6.6746,9.83556 c 3.67102,5.40955 7.57354,16.37188 8.67231,24.36074 l 1.99771,14.52519 27.55546,-1.78145 c 15.15552,-0.9798 32.04952,-2.49277 37.5422,-3.36214 l 9.98669,-1.58069 -14.55195,11.58643 c -13.50882,10.7559 -16.22154,11.72567 -37.84382,13.5289 l -23.29192,1.94248 v 8.32401 c 0,25.05431 -13.86674,49.00885 -34.44826,59.50876 -11.56331,5.89917 -14.12317,6.6403 -14.12317,4.08897 z m 32.36272,-166.98743 c -0.57663,-11.61356 -11.63197,-22.89875 -22.43237,-22.89875 -7.94343,0 -7.48549,2.73199 3.73714,22.29436 5.3178,9.26958 8.54606,12.08135 13.12137,11.42858 4.97663,-0.71004 5.97934,-2.65726 5.57386,-10.82419 z m -216.84275,-1.71315 c 1.98458,-7.90721 -0.19405,-18.32846 -3.83168,-18.32846 -1.90762,0 -8.83114,18.73963 -8.83114,23.90292 0,0.99625 2.43204,1.81137 5.40454,1.81137 3.42944,0 6.082,-2.69918 7.25828,-7.38583 z"
       id="path199"
       inkscape:connector-curvature="0"
       transform="scale(0.26458333)" />
  </g>
</svg>
