<svg id="Capa_1" enable-background="new 0 0 512.607 512.607" height="512" viewBox="0 0 512.607 512.607" width="512" xmlns="http://www.w3.org/2000/svg"><path id="XMLID_1388_" d="m491.395 141.331 21.213-21.213-120.119-120.118-21.213 21.213 49.453 49.453-22.627 22.627-33.942-33.941-37.984 37.984-15.512-15.511-21.213 21.213 11.801 11.801-215.723 215.724 12.928 62.376-98.457 98.456 21.213 21.213 98.456-98.456 62.376 12.928 215.724-215.724 11.801 11.801 21.213-21.213-15.511-15.512 37.984-37.984-33.941-33.941 22.627-22.627zm-319.115 253.086-44.804-9.286-9.286-44.804 28.713-28.713 18.279 18.279 21.213-21.213-18.279-18.279 31.684-31.684 29.592 29.592 21.213-21.213-29.592-29.592 31.684-31.684 18.279 18.279 21.213-21.213-18.279-18.279 48.555-48.555 54.09 54.09zm175.11-275.868 16.771-16.771 46.669 46.669-16.771 16.771z"/></svg>