<svg id="Capa_1" enable-background="new 0 0 513 513" height="512" viewBox="0 0 513 513" width="512" xmlns="http://www.w3.org/2000/svg"><g><g><path d="m415.135 62.332-.048.443c-26.148-26.387-62.391-42.751-102.474-42.751h-112.226c-39.461 0-75.223 15.841-101.272 41.511l.755.504c-52.248 9.588-91.87 55.272-91.87 110.291v232.468c0 39.845 32.3 72.145 72.145 72.145 38.858 0 70.452-30.743 71.997-69.222l.154 1.038c28.662 22.621 64.856 36.12 104.203 36.12 21.064 0 40.932-4.919 58.739-13.452l16.929-5.427 41.572 20.163c13.048 18.612 34.661 30.781 59.117 30.781 39.845 0 72.145-32.301 72.145-72.145v-232.469c-.001-54.324-38.599-99.632-89.866-109.998z" fill="#beebeb"/><g><path d="m176.339 100.185c0-22.136-17.945-40.081-40.081-40.081h-35.548c-.516.494-1.087.929-1.595 1.43l.755.504c-52.248 9.589-91.87 55.273-91.87 110.293v230.113c0 38.036 28.447 71.322 66.368 74.275 41.458 3.228 76.153-28.628 77.774-68.997l.154 1.038c40.074 36.12 104.203 36.12 104.203 36.12-49.732-29.839-80.161-83.583-80.161-141.58v-203.115z" fill="#00d2dc"/></g><g><path d="m392.774 308.605c-17.709 0-32.065-14.356-32.065-32.064v-16.032h64.129v16.032c.001 17.708-14.355 32.064-32.064 32.064z" fill="#0096d2"/></g><g><circle cx="232.452" cy="192.371" fill="#0096d2" r="28.056"/></g><g><circle cx="258.254" cy="182.771" fill="#fff" r="12.024"/></g><g><circle cx="388.766" cy="192.371" fill="#0096d2" r="28.056"/></g><g><circle cx="416.405" cy="188.363" fill="#fff" r="12.024"/></g><g><circle cx="312.613" cy="300.589" fill="#00d2dc" r="8.016"/></g><g><circle cx="288.565" cy="284.556" fill="#00d2dc" r="8.016"/></g><g><path d="m395.382 340.669h-6.56c-7.691 31.832-26.505 59.244-52.161 77.968v34.257c0 22.136 17.945 40.081 40.081 40.081s40.081-17.945 40.081-40.081v-55.276c-9.193-14.281-17.423-32.999-21.441-56.949z" fill="#0096d2"/></g></g><g fill="#283c64"><path d="m418.368 54.843c-27.414-26.492-64.712-42.819-105.755-42.819h-112.226c-39.8 0-77.348 15.217-105.901 42.863-53.965 11.818-94.486 59.984-94.486 117.443v232.468c0 44.192 35.953 80.145 80.145 80.145 37.946 0 69.794-26.517 78.045-61.987 29.061 19.613 62.779 29.922 98.31 29.922 26.271 0 50.922-7.062 72.161-19.382v19.398c0 26.512 21.569 48.081 48.081 48.081 15.221 0 28.804-7.118 37.62-18.191 6.036 1.426 12.237 2.159 18.493 2.159 44.192 0 80.145-35.953 80.145-80.145v-232.468c0-56.437-39.698-105.572-94.632-117.487zm-258.078 349.972c0-.006 0-.011 0-.017v-280.564c0-8.849 7.199-16.048 16.048-16.048 4.418 0 8-3.582 8-8s-3.582-8-8-8c-17.671 0-32.048 14.377-32.048 32.048v280.564c0 35.37-28.775 64.145-64.146 64.145-35.37 0-64.145-28.776-64.145-64.145v-232.468c0-57.47 46.755-104.226 104.226-104.226h32.065c4.418 0 8-3.582 8-8s-3.582-8-8-8h-29.31c22.594-15.649 49.377-24.08 77.406-24.08h112.226c75.151 0 136.291 61.14 136.291 136.29v136.274c0 4.418 3.582 8 8 8s8-3.582 8-8v-136.274c0-31.745-9.769-61.249-26.451-85.674 35.038 17.147 58.548 53.251 58.548 93.69v152.323h-64.145c-4.418 0-8 3.582-8 8s3.582 8 8 8h16.048v16.56c-2.566-.315-5.242-.495-8.032-.495-4.418 0-8 3.582-8 8s3.582 8 8 8c2.827 0 5.505.248 8.032.667v38.014c0 2.803-1.986 3.941-2.839 4.301-.864.363-3.09.994-5.119-.988-17.518-17.119-38.236-47.992-40.031-98.939 18.202-3.771 31.925-19.928 31.925-39.232v-16.032c0-.001 0-.002 0-.004 0-.001 0-.002 0-.004 0-16.579-9.226-31.273-23.05-38.863 4.253-3.053 7.872-7.027 10.503-11.758 2.148-3.861.759-8.732-3.102-10.88-3.862-2.147-8.732-.759-10.88 3.103-3.543 6.369-10.265 10.326-17.543 10.326-11.059 0-20.057-8.998-20.057-20.057 0-10.943 8.813-20.303 19.712-20.499 1.642.094 3.29.241 4.942.485 16.747 2.481 30.981 12.393 38.077 26.515 1.405 2.796 4.226 4.41 7.155 4.41 1.207 0 2.433-.274 3.585-.854 3.948-1.983 5.54-6.792 3.557-10.74-9.433-18.771-28.135-31.915-50.029-35.159-21.895-3.244-43.604 3.913-58.074 19.144-3.043 3.203-2.914 8.267.29 11.31s8.268 2.913 11.31-.29c1.536-1.616 3.193-3.097 4.937-4.466-.946 3.22-1.462 6.621-1.462 10.143 0 20.164 15.088 37.005 35.095 39.505l4.233.529c11.394 1.424 20.526 9.546 23.644 20.102h-54.972c-4.418 0-8 3.582-8 8v16.032c0 19.281 13.691 35.421 31.862 39.217-3.724 67.416-59.741 121.122-128.071 121.122-35.131.001-68.31-11.074-96.211-32.063zm232.484-104.211c-13.27 0-24.065-10.795-24.065-24.064v-8.032h48.129v8.032c.001 13.269-10.795 24.064-24.064 24.064zm-16.032 184.372c-17.689 0-32.081-14.391-32.081-32.081v-30.169c8.914-6.902 16.998-14.823 24.081-23.586v29.707c0 4.418 3.582 8 8 8s8-3.582 8-8v-54.191c2.479-4.793 4.691-9.745 6.63-14.832 4.386 15.866 10.585 29.163 17.452 40.193v52.878c-.001 17.689-14.393 32.081-32.082 32.081zm56.112-16.033c-3.535 0-7.046-.296-10.503-.865 1.594-4.776 2.471-9.878 2.471-15.183v-31.838c1.662 1.801 3.314 3.507 4.94 5.097 4.004 3.912 9.115 5.96 14.372 5.96 2.718 0 5.476-.548 8.138-1.668 7.791-3.28 12.631-10.579 12.631-19.047v-32.489c6.452 3.498 10.105 7.202 10.239 7.341 1.572 1.66 3.688 2.499 5.811 2.499 1.961 0 3.927-.717 5.47-2.163 3.223-3.022 3.386-8.085.365-11.308-.476-.508-8.293-8.676-21.885-14.005v-20.62h32.097v64.145c0 35.369-28.775 64.144-64.146 64.144z"/><path d="m266.91 203.011c1.302-4.223-1.064-8.701-5.287-10.003-4.221-1.304-8.7 1.064-10.002 5.286-2.607 8.454-10.311 14.134-19.169 14.134-11.059 0-20.057-8.998-20.057-20.057 0-7.536 4.185-14.099 10.348-17.521 2.876-1.062 5.876-1.893 8.974-2.468 16.645-3.094 33.326 1.66 44.625 12.711 3.159 3.089 8.224 3.034 11.313-.125 3.09-3.159 3.034-8.224-.125-11.313-15.019-14.691-36.976-21.046-58.736-17.005-21.76 4.043-39.969 17.862-48.708 36.967-1.838 4.018-.071 8.765 3.947 10.603 1.079.494 2.209.727 3.323.727 3.034 0 5.936-1.735 7.28-4.674.6-1.311 1.28-2.577 1.998-3.82 2.035 17.965 17.318 31.973 35.819 31.973 15.92.002 29.768-10.213 34.457-25.415z"/><path d="m336.661 324.653h-96.193c-4.418 0-8 3.582-8 8s3.582 8 8 8h96.193c4.418 0 8-3.582 8-8s-3.581-8-8-8z"/><path d="m328.645 356.718c-38.261 0-61.177 25.687-62.133 26.78-2.902 3.316-2.565 8.344.74 11.258 1.518 1.338 3.402 1.994 5.281 1.994 2.213 0 4.418-.912 6-2.694.19-.213 19.311-21.338 50.112-21.338 4.418 0 8-3.582 8-8s-3.582-8-8-8z"/></g></g></svg>